<svg width="139" height="48" viewBox="0 0 139 48" fill="none" xmlns="http://www.w3.org/2000/svg">
  <path d="M104 0.30127H0V11.0997H63.3818V43.8013H76.0561V11.0997H96.1748L104 0.30127Z" fill="url(#paint0_linear_18_1491)"/>
  <path d="M43.8143 16.0375H12.6743V10H0V14V26.8331V43.3013H12.6743V26.8331H35.9891L43.8143 16.0375Z" fill="url(#paint1_linear_18_1491)"/>
  <path d="M24.944 29.9832H21.3913L16.9895 42.894H19.8316L20.6981 40.2599H25.6372L26.5037 42.894H29.3458L24.944 29.9832ZM21.4606 37.9203L23.1763 32.6867L24.8746 37.9203H21.4606ZM30.4663 42.894H33.1524V29.9832H30.4663V42.894ZM35.2388 42.894H39.45C43.6266 42.894 46.33 40.1732 46.33 36.4299C46.33 32.6867 43.6439 29.9832 39.45 29.9832H35.2388V42.894ZM37.925 40.5545V32.3227H39.5193C42.0322 32.3227 43.6439 33.9171 43.6439 36.4299C43.6439 38.9428 42.0322 40.5545 39.5193 40.5545H37.925ZM54.4592 29.9832H50.9065L46.5047 42.894H49.3468L50.2133 40.2599H55.1524L56.0189 42.894H58.861L54.4592 29.9832ZM50.9758 37.9203L52.6915 32.6867L54.3899 37.9203H50.9758Z" fill="black"/>
  <path d="M87.5406 43.9179C91.6497 43.9179 94.7543 40.8863 94.7543 36.8868C94.7543 32.8873 91.6679 29.874 87.5406 29.874C83.4133 29.874 80.3269 32.8873 80.3269 36.8868C80.3269 40.8863 83.4316 43.9179 87.5406 43.9179ZM87.5406 41.3611C85.0569 41.3611 83.1576 39.5166 83.1576 36.8868C83.1576 34.257 85.0569 32.4308 87.5406 32.4308C90.0243 32.4308 91.9236 34.257 91.9236 36.8868C91.9236 39.5166 90.0243 41.3611 87.5406 41.3611ZM110.859 30.0932L108.539 39.9732L106.348 30.0932H102.914L100.723 39.9732L98.4035 30.0932H95.3172L98.6775 43.6987H102.366L104.54 34.0379L106.713 43.6987H110.402L113.762 30.0932H110.859ZM115.133 43.6987H124.264L124.282 41.2333H117.963V38.1104H123.917V35.645H117.963V32.5586H124.282V30.0932H115.133V43.6987ZM126.101 43.6987H128.932V38.7679H131.324L134.082 43.6987H137.259L134.155 38.2748C135.597 37.6173 136.51 36.3024 136.51 34.4396C136.51 31.5907 134.502 30.0932 131.689 30.0932H126.101V43.6987ZM128.932 36.3024V32.5586H131.707C132.895 32.5586 133.68 33.3074 133.68 34.4396C133.68 35.5537 132.895 36.3024 131.707 36.3024H128.932Z" fill="#010101" fill-opacity="0.8"/>
  <defs>
  <linearGradient id="paint0_linear_18_1491" x1="-48.75" y1="-11.2029" x2="-40.834" y2="68.8657" gradientUnits="userSpaceOnUse">
  <stop stop-color="#651940"/>
  <stop offset="1" stop-color="#7C1B4C"/>
  </linearGradient>
  <linearGradient id="paint1_linear_18_1491" x1="-20.5379" y1="1.19305" x2="-9.76596" y2="61.1531" gradientUnits="userSpaceOnUse">
  <stop stop-color="#651940"/>
  <stop offset="1" stop-color="#7C1B4C"/>
  </linearGradient>
  </defs>
  </svg>
  